{"title":"My Little Pony S07E18 - Daring Done [1080p]","magnet":"magnet:?xt=urn:btih:3d254e38bbf79e62a024d79482b1cb4885005fa1&dn=My+Little+Pony+S07E18+-+Daring+Done+%5B1080p%5D&tr=udp%3A%2F%2Ftracker.leechers-paradise.org%3A6969&tr=udp%3A%2F%2Fzer0day.ch%3A1337&tr=udp%3A%2F%2Fopen.demonii.com%3A1337&tr=udp%3A%2F%2Ftracker.coppersurfer.tk%3A6969&tr=udp%3A%2F%2Fexodus.desync.com%3A6969","uploader":"raribelle","categoryP":"video","categoryS":"tv_shows","size":"724900224","seeders":"0","leechers":"0","description":"Video\r\nID                                       : 1\r\nFormat                                   : AVC\r\nFormat/Info                              : Advanced Video Codec\r\nFormat profile                           : <a href=\"/cdn-cgi/l/email-protection\" class=\"__cf_email__\" data-cfemail=\"f0b8999798b0bcc4\">[email&#xA0;protected]</a>\r\nFormat settings, CABAC                   : Yes\r\nFormat settings, ReFrames                : 3 frames\r\nFormat settings, GOP                     : M=4, N=90\r\nCodec ID                                 : avc1\r\nCodec ID/Info                            : Advanced Video Coding\r\nDuration                                 : 22 min 9 s\r\nBit rate                                 : 4 190 kb/s\r\nWidth                                    : 1 920 pixels\r\nHeight                                   : 1 080 pixels\r\nDisplay aspect ratio                     : 16:9\r\nFrame rate mode                          : Variable\r\nFrame rate                               : 30.000 FPS\r\nMinimum frame rate                       : 29.990 FPS\r\nMaximum frame rate                       : 30.010 FPS\r\nColor space                              : YUV\r\nChroma subsampling                       : 4:2:0\r\nBit depth                                : 8 bits\r\nScan type                                : Progressive\r\nBits/(Pixel*Frame)                       : 0.067\r\nStream size                              : 664 MiB (96%)\r\n\r\nAudio\r\nID                                       : 2\r\nFormat                                   : AAC\r\nFormat/Info                              : Advanced Audio Codec\r\nFormat profile                           : LC\r\nCodec ID                                 : 40\r\nDuration                                 : 22 min 9 s\r\nBit rate mode                            : Constant\r\nBit rate                                 : 160 kb/s\r\nChannel(s)                               : 2 channels\r\nChannel positions                        : Front: L R\r\nSampling rate                            : 44.1 kHz\r\nFrame rate                               : 43.066 FPS (1024 spf)\r\nCompression mode                         : Lossy\r\nStream size                              : 25.4 MiB (4%)\r\nDefault                                  : Yes\r\nAlternate group                          : 1","last_updated":"2017-09-04T12:06:46.481Z","parsed":{"xt":"urn:btih:3d254e38bbf79e62a024d79482b1cb4885005fa1","dn":"My Little Pony S07E18 - Daring Done [1080p]","tr":["udp://exodus.desync.com:6969","udp://open.demonii.com:1337","udp://tracker.coppersurfer.tk:6969","udp://tracker.leechers-paradise.org:6969","udp://zer0day.ch:1337"],"infoHash":"3d254e38bbf79e62a024d79482b1cb4885005fa1","infoHashBuffer":{"type":"Buffer","data":[61,37,78,56,187,247,158,98,160,36,215,148,130,177,203,72,133,0,95,161]},"name":"My Little Pony S07E18 - Daring Done [1080p]","announce":["udp://exodus.desync.com:6969","udp://open.demonii.com:1337","udp://tracker.coppersurfer.tk:6969","udp://tracker.leechers-paradise.org:6969","udp://zer0day.ch:1337"],"urlList":[]}}